<svg xmlns="http://www.w3.org/2000/svg" xmlns:xlink="http://www.w3.org/1999/xlink" viewBox="0 0 400 400" width="400" height="400" preserveAspectRatio="xMidYMid meet" style="width: 100%; height: 100%; transform: translate3d(0px, 0px, 0px); content-visibility: visible;">
	<defs>
		<clipPath id="__lottie_element_2303">
			<rect width="400" height="400" x="0" y="0"/>
		</clipPath>
		<clipPath id="__lottie_element_2305">
			<path d="M0,0 L400,0 L400,400 L0,400z"/>
		</clipPath>
		<symbol id="__lottie_element_2308">
			<g>
				<g clip-path="url(#__lottie_element_2309)" transform="matrix(1,0,0,1,0,0)" opacity="1" style="display: block;">
					<g clip-path="url(#__lottie_element_2339)" transform="matrix(1,0,0,1,0,0)" opacity="1" style="display: block;">
						<g clip-path="url(#__lottie_element_2340)">
							<g transform="matrix(0.5,-0.8660253882408142,0.8660253882408142,0.5,200.4515380859375,200.18862915039062)" opacity="1" style="display: block;">
								<g opacity="1" transform="matrix(1,0,0,1,-1.5,90.5)">
									<path stroke-linecap="butt" stroke-linejoin="miter" fill-opacity="0" stroke-miterlimit="4" stroke="rgb(45,45,45)" stroke-opacity="1" stroke-width="11" d=" M161.25,-90.5 C161.25,-90.5 161.25,69.75 161.25,69.75 C161.25,69.75 89.42051696777344,62.43600082397461 89.42051696777344,62.43600082397461 C89.42051696777344,62.43600082397461 1.2115182876586914,-90.4990005493164 1.2115182876586914,-90.4990005493164 C1.2115182876586914,-90.4990005493164 161.25,-90.5 161.25,-90.5z"/>
								</g>
							</g>
							<g transform="matrix(1,0,0,1,200.06300354003906,200.4853515625)" opacity="1" style="display: block;">
								<g opacity="1" transform="matrix(1,0,0,1,-1.5,90.5)">
									<path stroke-linecap="butt" stroke-linejoin="miter" fill-opacity="0" stroke-miterlimit="4" stroke="rgb(45,45,45)" stroke-opacity="1" stroke-width="11" d=" M161.25,-90.5 C161.25,-90.5 161.25,69.75 161.25,69.75 C161.25,69.75 89.42051696777344,62.43600082397461 89.42051696777344,62.43600082397461 C89.42051696777344,62.43600082397461 1.2115182876586914,-90.4990005493164 1.2115182876586914,-90.4990005493164 C1.2115182876586914,-90.4990005493164 161.25,-90.5 161.25,-90.5z"/>
								</g>
							</g>
							<g transform="matrix(0.5,0.8660253882408142,-0.8660253882408142,0.5,199.6114501953125,200.2977294921875)" opacity="1" style="display: block;">
								<g opacity="1" transform="matrix(1,0,0,1,-1.5,90.5)">
									<path stroke-linecap="butt" stroke-linejoin="miter" fill-opacity="0" stroke-miterlimit="4" stroke="rgb(45,45,45)" stroke-opacity="1" stroke-width="11" d=" M161.25,-90.5 C161.25,-90.5 161.25,69.75 161.25,69.75 C161.25,69.75 89.42051696777344,62.43600082397461 89.42051696777344,62.43600082397461 C89.42051696777344,62.43600082397461 1.2115182876586914,-90.4990005493164 1.2115182876586914,-90.4990005493164 C1.2115182876586914,-90.4990005493164 161.25,-90.5 161.25,-90.5z"/>
								</g>
							</g>
							<g transform="matrix(-0.5,0.8660253882408142,-0.8660253882408142,-0.5,199.5484619140625,199.8123779296875)" opacity="1" style="display: block;">
								<g opacity="1" transform="matrix(1,0,0,1,-1.5,90.5)">
									<path stroke-linecap="butt" stroke-linejoin="miter" fill-opacity="0" stroke-miterlimit="4" stroke="rgb(45,45,45)" stroke-opacity="1" stroke-width="11" d=" M161.25,-90.5 C161.25,-90.5 161.25,69.75 161.25,69.75 C161.25,69.75 89.42051696777344,62.43600082397461 89.42051696777344,62.43600082397461 C89.42051696777344,62.43600082397461 1.2115182876586914,-90.4990005493164 1.2115182876586914,-90.4990005493164 C1.2115182876586914,-90.4990005493164 161.25,-90.5 161.25,-90.5z"/>
								</g>
							</g>
							<g transform="matrix(-1,0,0,-1,199.93699645996094,199.5146484375)" opacity="1" style="display: block;">
								<g opacity="1" transform="matrix(1,0,0,1,-1.5,90.5)">
									<path stroke-linecap="butt" stroke-linejoin="miter" fill-opacity="0" stroke-miterlimit="4" stroke="rgb(45,45,45)" stroke-opacity="1" stroke-width="11" d=" M161.25,-90.5 C161.25,-90.5 161.25,69.75 161.25,69.75 C161.25,69.75 89.42051696777344,62.43600082397461 89.42051696777344,62.43600082397461 C89.42051696777344,62.43600082397461 1.2115182876586914,-90.4990005493164 1.2115182876586914,-90.4990005493164 C1.2115182876586914,-90.4990005493164 161.25,-90.5 161.25,-90.5z"/>
								</g>
							</g>
							<g transform="matrix(-0.5,-0.8660253882408142,0.8660253882408142,-0.5,200.3885498046875,199.7032470703125)" opacity="1" style="display: block;">
								<g opacity="1" transform="matrix(1,0,0,1,-1.5,90.5)">
									<path stroke-linecap="butt" stroke-linejoin="miter" fill-opacity="0" stroke-miterlimit="4" stroke="rgb(45,45,45)" stroke-opacity="1" stroke-width="11" d=" M161.25,-90.5 C161.25,-90.5 161.25,69.75 161.25,69.75 C161.25,69.75 89.42051696777344,62.43600082397461 89.42051696777344,62.43600082397461 C89.42051696777344,62.43600082397461 1.2115182876586914,-90.4990005493164 1.2115182876586914,-90.4990005493164 C1.2115182876586914,-90.4990005493164 161.25,-90.5 161.25,-90.5z"/>
								</g>
							</g>
						</g>
					</g>
					<g transform="matrix(1,0,0,1,-451,7)" opacity="1" style="display: block;">
						<g opacity="1" transform="matrix(1,0,0,1,651,193)">
							<path stroke-linecap="butt" stroke-linejoin="miter" fill-opacity="0" stroke-miterlimit="4" stroke="rgb(45,45,45)" stroke-opacity="1" stroke-width="14" d=" M0,-138 C76.21499633789062,-138 138,-76.21499633789062 138,0 C138,76.21499633789062 76.21499633789062,138 0,138 C-76.21499633789062,138 -138,76.21499633789062 -138,0 C-138,-76.21499633789062 -76.21499633789062,-138 0,-138z"/>
						</g>
					</g>
				</g>
			</g>
		</symbol>
		<clipPath id="__lottie_element_2309">
			<path d="M0,0 L400,0 L400,400 L0,400z"/>
		</clipPath>
		<filter id="__lottie_element_2312" filterUnits="objectBoundingBox" x="0%" y="0%" width="100%" height="100%">
			<feComponentTransfer in="SourceGraphic">
				<feFuncA type="table" tableValues="1.0 0.0"/>
			</feComponentTransfer>
		</filter>
		<mask id="__lottie_element_2308_2" mask-type="alpha">
			<g filter="url(#__lottie_element_2312)">
				<rect width="400" height="400" x="0" y="0" fill="#ffffff" opacity="0"/>
				<use xlink:href="#__lottie_element_2308"/>
			</g>
		</mask>
		<clipPath id="__lottie_element_2314">
			<path d="M0,0 L400,0 L400,400 L0,400z"/>
		</clipPath>
		<clipPath id="__lottie_element_2315">
			<path fill="#ffffff" clip-rule="nonzero" d=" M200,61.96900177001953 C276.2149963378906,61.96900177001953 338,123.75399780273438 338,199.968994140625 C338,276.1839904785156 276.2149963378906,337.968994140625 200,337.968994140625 C123.78500366210938,337.968994140625 62,276.1839904785156 62,199.968994140625 C62,123.75399780273438 123.78500366210938,61.96900177001953 200,61.96900177001953" fill-opacity="1"/>
		</clipPath>
		<clipPath id="__lottie_element_2339">
			<path d="M0,0 L400,0 L400,400 L0,400z"/>
		</clipPath>
		<clipPath id="__lottie_element_2340">
			<path fill="#ffffff" clip-rule="nonzero" d=" M200,61.96900177001953 C276.2149963378906,61.96900177001953 338,123.75399780273438 338,199.968994140625 C338,276.1839904785156 276.2149963378906,337.968994140625 200,337.968994140625 C123.78500366210938,337.968994140625 62,276.1839904785156 62,199.968994140625 C62,123.75399780273438 123.78500366210938,61.96900177001953 200,61.96900177001953" fill-opacity="1"/>
		</clipPath>
	</defs>
	<g clip-path="url(#__lottie_element_2303)">
		<g mask="url(#__lottie_element_2308_2)" style="display: block;">
			<g clip-path="url(#__lottie_element_2305)" transform="matrix(1,0,0,1,0,0)" opacity="1">
				<g clip-path="url(#__lottie_element_2314)" transform="matrix(1,0,0,1,0,0)" opacity="1" style="display: block;">
					<g clip-path="url(#__lottie_element_2315)">
						<g transform="matrix(1,0,0,1,200.06300354003906,200.4853515625)" opacity="1" style="display: block;">
							<g opacity="1" transform="matrix(1,0,0,1,-1.5,90.5)">
								<path fill="rgb(45,45,45)" fill-opacity="1" d=" M161.25,-90.5 C161.25,-90.5 161.25,69.75 161.25,69.75 C161.25,69.75 -158.375,69.75 -158.375,69.75 C-158.375,69.75 -158.375,-90.5 -158.375,-90.5 C-158.375,-90.5 161.25,-90.5 161.25,-90.5z"/>
								<path stroke-linecap="butt" stroke-linejoin="miter" fill-opacity="0" stroke-miterlimit="4" stroke="rgb(45,45,45)" stroke-opacity="1" stroke-width="9" d=" M161.25,-90.5 C161.25,-90.5 161.25,69.75 161.25,69.75 C161.25,69.75 -158.375,69.75 -158.375,69.75 C-158.375,69.75 -158.375,-90.5 -158.375,-90.5 C-158.375,-90.5 161.25,-90.5 161.25,-90.5z"/>
							</g>
						</g>
						<g transform="matrix(0.5,0.8660253882408142,-0.8660253882408142,0.5,199.6114501953125,200.2977294921875)" opacity="1" style="display: block;">
							<g opacity="1" transform="matrix(1,0,0,1,-1.5,90.5)">
								<path fill="rgb(45,45,45)" fill-opacity="1" d=" M161.25,-90.5 C161.25,-90.5 161.25,69.75 161.25,69.75 C161.25,69.75 -158.375,69.75 -158.375,69.75 C-158.375,69.75 -158.375,-90.5 -158.375,-90.5 C-158.375,-90.5 161.25,-90.5 161.25,-90.5z"/>
								<path stroke-linecap="butt" stroke-linejoin="miter" fill-opacity="0" stroke-miterlimit="4" stroke="rgb(45,45,45)" stroke-opacity="1" stroke-width="9" d=" M161.25,-90.5 C161.25,-90.5 161.25,69.75 161.25,69.75 C161.25,69.75 -158.375,69.75 -158.375,69.75 C-158.375,69.75 -158.375,-90.5 -158.375,-90.5 C-158.375,-90.5 161.25,-90.5 161.25,-90.5z"/>
							</g>
						</g>
						<g transform="matrix(-0.5,0.8660253882408142,-0.8660253882408142,-0.5,199.5484619140625,199.8123779296875)" opacity="1" style="display: block;">
							<g opacity="1" transform="matrix(1,0,0,1,-1.5,90.5)">
								<path fill="rgb(45,45,45)" fill-opacity="1" d=" M161.25,-90.5 C161.25,-90.5 161.25,69.75 161.25,69.75 C161.25,69.75 -158.375,69.75 -158.375,69.75 C-158.375,69.75 -158.375,-90.5 -158.375,-90.5 C-158.375,-90.5 161.25,-90.5 161.25,-90.5z"/>
								<path stroke-linecap="butt" stroke-linejoin="miter" fill-opacity="0" stroke-miterlimit="4" stroke="rgb(45,45,45)" stroke-opacity="1" stroke-width="9" d=" M161.25,-90.5 C161.25,-90.5 161.25,69.75 161.25,69.75 C161.25,69.75 -158.375,69.75 -158.375,69.75 C-158.375,69.75 -158.375,-90.5 -158.375,-90.5 C-158.375,-90.5 161.25,-90.5 161.25,-90.5z"/>
							</g>
						</g>
						<g transform="matrix(-1,0,0,-1,199.93699645996094,199.5146484375)" opacity="1" style="display: block;">
							<g opacity="1" transform="matrix(1,0,0,1,-1.5,90.5)">
								<path fill="rgb(45,45,45)" fill-opacity="1" d=" M161.25,-90.5 C161.25,-90.5 161.25,69.75 161.25,69.75 C161.25,69.75 -158.375,69.75 -158.375,69.75 C-158.375,69.75 -158.375,-90.5 -158.375,-90.5 C-158.375,-90.5 161.25,-90.5 161.25,-90.5z"/>
								<path stroke-linecap="butt" stroke-linejoin="miter" fill-opacity="0" stroke-miterlimit="4" stroke="rgb(45,45,45)" stroke-opacity="1" stroke-width="9" d=" M161.25,-90.5 C161.25,-90.5 161.25,69.75 161.25,69.75 C161.25,69.75 -158.375,69.75 -158.375,69.75 C-158.375,69.75 -158.375,-90.5 -158.375,-90.5 C-158.375,-90.5 161.25,-90.5 161.25,-90.5z"/>
							</g>
						</g>
						<g transform="matrix(-0.5,-0.8660253882408142,0.8660253882408142,-0.5,200.3885498046875,199.7022705078125)" opacity="1" style="display: block;">
							<g opacity="1" transform="matrix(1,0,0,1,-1.5,90.5)">
								<path fill="rgb(45,45,45)" fill-opacity="1" d=" M161.25,-90.5 C161.25,-90.5 161.25,69.75 161.25,69.75 C161.25,69.75 92.68479919433594,76.19400024414062 92.68479919433594,76.19400024414062 C92.68479919433594,76.19400024414062 1.0008020401000977,-90.5 1.0008020401000977,-90.5 C1.0008020401000977,-90.5 161.25,-90.5 161.25,-90.5z"/>
								<path stroke-linecap="butt" stroke-linejoin="miter" fill-opacity="0" stroke-miterlimit="4" stroke="rgb(45,45,45)" stroke-opacity="1" stroke-width="9" d=" M161.25,-90.5 C161.25,-90.5 161.25,69.75 161.25,69.75 C161.25,69.75 92.68479919433594,76.19400024414062 92.68479919433594,76.19400024414062 C92.68479919433594,76.19400024414062 1.0008020401000977,-90.5 1.0008020401000977,-90.5 C1.0008020401000977,-90.5 161.25,-90.5 161.25,-90.5z"/>
							</g>
						</g>
						<g transform="matrix(0.5,-0.8660253882408142,0.8660253882408142,0.5,200.4515380859375,200.18862915039062)" opacity="1" style="display: block;">
							<g opacity="1" transform="matrix(1,0,0,1,-1.5,90.5)">
								<path fill="rgb(45,45,45)" fill-opacity="1" d=" M161.25,-90.5 C161.25,-90.5 161.25,69.75 161.25,69.75 C161.25,69.75 89.42051696777344,62.43600082397461 89.42051696777344,62.43600082397461 C89.42051696777344,62.43600082397461 1.2115182876586914,-90.4990005493164 1.2115182876586914,-90.4990005493164 C1.2115182876586914,-90.4990005493164 161.25,-90.5 161.25,-90.5z"/>
								<path stroke-linecap="butt" stroke-linejoin="miter" fill-opacity="0" stroke-miterlimit="4" stroke="rgb(45,45,45)" stroke-opacity="1" stroke-width="9" d=" M161.25,-90.5 C161.25,-90.5 161.25,69.75 161.25,69.75 C161.25,69.75 89.42051696777344,62.43600082397461 89.42051696777344,62.43600082397461 C89.42051696777344,62.43600082397461 1.2115182876586914,-90.4990005493164 1.2115182876586914,-90.4990005493164 C1.2115182876586914,-90.4990005493164 161.25,-90.5 161.25,-90.5z"/>
							</g>
						</g>
					</g>
				</g>
				<g transform="matrix(1,0,0,1,-451,7)" opacity="1" style="display: block;">
					<g opacity="1" transform="matrix(1,0,0,1,651,193)">
						<path stroke-linecap="butt" stroke-linejoin="miter" fill-opacity="0" stroke-miterlimit="4" stroke="rgb(45,45,45)" stroke-opacity="1" stroke-width="9" d=" M0,-138 C76.21499633789062,-138 138,-76.21499633789062 138,0 C138,76.21499633789062 76.21499633789062,138 0,138 C-76.21499633789062,138 -138,76.21499633789062 -138,0 C-138,-76.21499633789062 -76.21499633789062,-138 0,-138z"/>
					</g>
				</g>
			</g>
		</g>
	</g>
</svg>
