<svg xmlns="http://www.w3.org/2000/svg" xmlns:xlink="http://www.w3.org/1999/xlink" viewBox="0 0 480 480" width="480" height="480" preserveAspectRatio="xMidYMid meet" style="width: 100%; height: 100%; transform: translate3d(0px, 0px, 0px); content-visibility: visible;">
	<defs>
		<clipPath id="__lottie_element_313">
			<rect width="480" height="480" x="0" y="0"/>
		</clipPath>
	</defs>
	<g clip-path="url(#__lottie_element_313)">
		<g transform="matrix(-11.0916109085083,4.57997465133667,-4.57997465133667,-11.0916109085083,624.2626953125,386.04248046875)" opacity="1" style="display: block;">
			<g opacity="1" transform="matrix(1,0,0,1,24.423999786376953,23.641000747680664)">
				<path stroke-linecap="round" stroke-linejoin="round" fill-opacity="0" stroke="rgb(0,0,0)" stroke-opacity="1" stroke-width="2" d=" M17.459999084472656,-4.349999904632568 C16.309999465942383,-9.039999961853027 13.300000190734863,-13 9.270000457763672,-15.420000076293945 C6.570000171661377,-17.059999465942383 3.390000104904175,-18 0,-18 C-1.5,-18 -2.9600000381469727,-17.81999969482422 -4.349999904632568,-17.459999084472656 C-9.039999961853027,-16.309999465942383 -13,-13.300000190734863 -15.420000076293945,-9.270000457763672 C-17.059999465942383,-6.570000171661377 -18,-3.390000104904175 -18,0 C-18,1.5 -17.81999969482422,2.9600000381469727 -17.459999084472656,4.349999904632568 C-16.309999465942383,9.039999961853027 -13.300000190734863,13 -9.270000457763672,15.420000076293945 C-6.570000171661377,17.059999465942383 -3.390000104904175,18 0,18 C1.5,18 2.9600000381469727,17.819000244140625 4.349999904632568,17.459999084472656 C9.039999961853027,16.309999465942383 13,13.300000190734863 15.420000076293945,9.270000457763672 C17.059999465942383,6.568999767303467 18,3.390000104904175 18,0 C18,-1.5 17.81999969482422,-2.9600000381469727 17.459999084472656,-4.349999904632568z M0,3 C-0.8299999833106995,3 -1.5800000429153442,2.6600000858306885 -2.119999885559082,2.119999885559082 C-2.6600000858306885,1.5800000429153442 -3,0.8299999833106995 -3,0 C-3,-0.8299999833106995 -2.6600000858306885,-1.5800000429153442 -2.119999885559082,-2.119999885559082 C-1.5800000429153442,-2.6600000858306885 -0.8299999833106995,-3 0,-3 C0.8299999833106995,-3 1.5800000429153442,-2.6600000858306885 2.119999885559082,-2.119999885559082 C2.6600000858306885,-1.5800000429153442 3,-0.8299999833106995 3,0 C3,0.8299999833106995 2.6600000858306885,1.5800000429153442 2.119999885559082,2.119999885559082 C1.5800000429153442,2.6600000858306885 0.8299999833106995,3 0,3z"/>
			</g>
			<g opacity="1" transform="matrix(1,0,0,1,24.423999786376953,23.641000747680664)">
				<path stroke-linecap="round" stroke-linejoin="round" fill-opacity="0" stroke="rgb(0,0,0)" stroke-opacity="1" stroke-width="2" d=" M3,0 C3,0.8299999833106995 2.6600000858306885,1.5800000429153442 2.119999885559082,2.119999885559082 C1.5800000429153442,2.6600000858306885 0.8299999833106995,3 0,3 C-0.8299999833106995,3 -1.5800000429153442,2.6600000858306885 -2.119999885559082,2.119999885559082 C-2.6600000858306885,1.5800000429153442 -3,0.8299999833106995 -3,0 C-3,-0.8299999833106995 -2.6600000858306885,-1.5800000429153442 -2.119999885559082,-2.119999885559082 C-1.5800000429153442,-2.6600000858306885 -0.8299999833106995,-3 0,-3 C0.8299999833106995,-3 1.5800000429153442,-2.6600000858306885 2.119999885559082,-2.119999885559082 C2.6600000858306885,-1.5800000429153442 3,-0.8299999833106995 3,0z"/>
			</g>
			<g opacity="1" transform="matrix(1,0,0,1,18.784000396728516,13.85099983215332)">
				<path stroke-linecap="round" stroke-linejoin="round" fill-opacity="0" stroke="rgb(0,0,0)" stroke-opacity="1" stroke-width="2" d=" M3.5199999809265137,7.670000076293945 C2.569999933242798,6.699999809265137 -3.5199999809265137,-0.019999999552965164 1.2899999618530273,-7.670000076293945"/>
			</g>
			<g opacity="1" transform="matrix(1,0,0,1,29.05900001525879,14.430999755859375)">
				<path stroke-linecap="round" stroke-linejoin="round" fill-opacity="0" stroke="rgb(0,0,0)" stroke-opacity="1" stroke-width="2" d=" M-4.635000228881836,6.210000038146973 C-4.614999771118164,4.849999904632568 -4.175000190734863,-4.199999809265137 4.635000228881836,-6.210000038146973"/>
			</g>
			<g opacity="1" transform="matrix(1,0,0,1,34.2140007019043,18.000999450683594)">
				<path stroke-linecap="round" stroke-linejoin="round" fill-opacity="0" stroke="rgb(0,0,0)" stroke-opacity="1" stroke-width="2" d=" M-7.670000076293945,3.5199999809265137 C-6.699999809265137,2.569999933242798 0.01899999938905239,-3.5199999809265137 7.670000076293945,1.2899999618530273"/>
			</g>
			<g opacity="1" transform="matrix(1,0,0,1,33.63399887084961,28.275999069213867)">
				<path stroke-linecap="round" stroke-linejoin="round" fill-opacity="0" stroke="rgb(0,0,0)" stroke-opacity="1" stroke-width="2" d=" M-6.210000038146973,-4.635000228881836 C-4.85099983215332,-4.614999771118164 4.199999809265137,-4.175000190734863 6.210000038146973,4.635000228881836"/>
			</g>
			<g opacity="1" transform="matrix(1,0,0,1,30.06399917602539,33.430999755859375)">
				<path stroke-linecap="round" stroke-linejoin="round" fill-opacity="0" stroke="rgb(0,0,0)" stroke-opacity="1" stroke-width="2" d=" M-3.5199999809265137,-7.670000076293945 C-2.571000099182129,-6.699999809265137 3.5199999809265137,0.01899999938905239 -1.2910000085830688,7.670000076293945"/>
			</g>
			<g opacity="1" transform="matrix(1,0,0,1,19.788999557495117,32.85100173950195)">
				<path stroke-linecap="round" stroke-linejoin="round" fill-opacity="0" stroke="rgb(0,0,0)" stroke-opacity="1" stroke-width="2" d=" M-4.635000228881836,6.210000038146973 C4.175000190734863,4.199999809265137 4.614999771118164,-4.85099983215332 4.635000228881836,-6.210000038146973"/>
			</g>
			<g opacity="1" transform="matrix(1,0,0,1,14.633999824523926,29.2810001373291)">
				<path stroke-linecap="round" stroke-linejoin="round" fill-opacity="0" stroke="rgb(0,0,0)" stroke-opacity="1" stroke-width="2" d=" M-7.670000076293945,-1.2910000085830688 C-0.019999999552965164,3.5199999809265137 6.699999809265137,-2.571000099182129 7.670000076293945,-3.5199999809265137"/>
			</g>
			<g opacity="1" transform="matrix(1,0,0,1,15.213000297546387,19.006000518798828)">
				<path stroke-linecap="round" stroke-linejoin="round" fill-opacity="0" stroke="rgb(0,0,0)" stroke-opacity="1" stroke-width="2" d=" M-6.210000038146973,-4.635000228881836 C-4.199999809265137,4.175000190734863 4.849999904632568,4.614999771118164 6.210000038146973,4.635000228881836"/>
			</g>
		</g>
	</g>
</svg>