<?xml version="1.0" encoding="UTF-8" standalone="no"?>
<!-- Created with Inkscape (http://www.inkscape.org/) -->

<svg fill="#9b9b9b" width="200" height="200" viewBox="0 0 200 200" version="1.1" id="svg5"
   xmlns="http://www.w3.org/2000/svg" xmlns:svg="http://www.w3.org/2000/svg">
   <path id="polyline"
      d="M 54.110867 44.148178 C 52.530069 44.148178 51.185581 45.098413 50.327784 46.367481 C 49.475522 47.62836 49.007226 49.249192 49.001199 51.016312 L 40.55285 65.696893 A 1.375 1.375 0 0 0 41.05871 67.574153 A 1.375 1.375 0 0 0 42.935596 67.068475 L 49.000254 56.535593 L 49.000254 79.691116 L 40.55285 94.369424 A 1.375 1.375 0 0 0 41.05871 96.245547 A 1.375 1.375 0 0 0 42.935596 95.739869 L 49.000254 85.206987 L 49.000254 108.36251 L 40.55285 123.04082 A 1.375 1.375 0 0 0 41.05871 124.91808 A 1.375 1.375 0 0 0 42.935596 124.4124 L 49.000254 113.87838 L 49.000254 130.39986 L 42.987601 130.39986 C 42.98189 129.25604 42.976885 128.14487 42.96869 126.89988 L 40.219076 126.91806 C 40.23025 128.61546 40.237003 130.1799 40.24366 131.68849 A 1.3751375 1.3751375 0 0 0 40.234204 131.77485 L 40.234204 145.10771 A 1.3751375 1.3751375 0 0 0 40.25217 145.26453 C 40.238813 148.33276 40.219076 149.94745 40.219076 149.94745 L 42.96869 149.98495 C 42.96869 149.98495 42.983325 148.79683 42.99611 146.4827 L 49.000254 146.4827 L 49.000254 148.28496 C 49.000254 150.06546 49.469987 151.69995 50.327784 152.96902 C 51.185581 154.23809 52.530069 155.18719 54.110867 155.18719 C 55.691664 155.18719 57.037098 154.23809 57.894895 152.96902 C 58.752693 151.69995 59.222426 150.06546 59.222426 148.28496 L 59.222426 125.07035 A 1.3751375 1.3751375 0 0 0 60.179306 124.4124 L 67.611206 111.5034 L 69.511731 114.80565 L 69.511731 148.28496 C 69.511731 150.06546 69.982408 151.69995 70.840206 152.96902 C 71.698003 154.23809 73.042492 155.18719 74.623289 155.18719 C 76.204087 155.18719 77.548575 154.23809 78.406372 152.96902 C 79.264169 151.69995 79.733903 150.06546 79.733903 148.28496 L 79.733903 120.39993 L 84.855862 111.5034 L 90.023207 120.48288 L 90.023207 148.28496 C 90.023207 150.06546 90.491995 151.69995 91.349792 152.96902 C 92.20759 154.23809 93.553969 155.18719 95.134766 155.18719 C 96.715563 155.18719 98.060051 154.23809 98.917849 152.96902 C 99.775646 151.69995 100.24443 150.06546 100.24443 148.28496 L 100.24443 114.7261 L 102.09957 111.5034 L 109.53147 124.4124 A 1.3751375 1.3751375 0 0 0 110.53563 125.07035 L 110.53563 148.28496 C 110.53563 150.06546 111.00347 151.69995 111.86127 152.96902 C 112.71907 154.23809 114.06355 155.18719 115.64435 155.18719 C 117.22515 155.18719 118.57153 154.23809 119.42933 152.96902 C 120.28713 151.69995 120.75591 150.06546 120.75591 148.28496 L 120.75591 146.4827 L 126.78275 146.4827 C 126.77043 148.77473 126.75627 149.94745 126.75627 149.94745 L 129.50399 149.98495 C 129.50399 149.98495 129.60504 142.32783 129.50399 126.89988 L 126.75438 126.91806 C 126.7625 128.15694 126.76666 129.2616 126.77235 130.39986 L 120.75591 130.39986 L 120.75591 113.95679 L 126.77518 124.4124 A 1.375 1.375 0 0 0 128.65207 124.91808 A 1.375 1.375 0 0 0 129.15793 123.04082 L 120.75591 108.44319 L 120.75591 85.285395 L 126.77518 95.739869 A 1.375 1.375 0 0 0 128.65207 96.245547 A 1.375 1.375 0 0 0 129.15793 94.369424 L 120.75591 79.771797 L 120.75591 56.611728 L 126.77518 67.068475 A 1.375 1.375 0 0 0 128.65207 67.574153 A 1.375 1.375 0 0 0 129.15793 65.696893 L 120.75591 51.099266 L 120.75591 51.050403 C 120.75591 49.269906 120.28713 47.636549 119.42933 46.367481 C 118.57153 45.098413 117.22515 44.148178 115.64435 44.148178 C 114.06355 44.148178 112.71907 45.098413 111.86127 46.367481 C 111.00347 47.636549 110.53563 49.269906 110.53563 51.050403 L 110.53563 63.301455 L 103.29095 50.716314 A 1.3751375 1.3751375 0 0 0 100.9082 50.716314 L 100.24443 51.869716 L 100.24443 51.050403 C 100.24443 49.269906 99.775646 47.636549 98.917849 46.367481 C 98.060051 45.098413 96.715563 44.148178 95.134766 44.148178 C 93.553969 44.148178 92.20759 45.098413 91.349792 46.367481 C 90.491995 47.636549 90.023207 49.269906 90.023207 51.050403 L 90.023207 57.625358 L 86.047235 50.716314 A 1.3751375 1.3751375 0 0 0 83.664489 50.716314 L 79.733903 57.544677 L 79.733903 51.050403 C 79.733903 49.269906 79.264169 47.636549 78.406372 46.367481 C 77.548575 45.098413 76.204087 44.148178 74.623289 44.148178 C 73.042492 44.148178 71.698003 45.098413 70.840206 46.367481 C 69.982408 47.636549 69.511731 49.269906 69.511731 51.050403 L 69.511731 51.948124 L 68.80258 50.716314 A 1.3751375 1.3751375 0 0 0 66.419833 50.716314 L 59.222426 63.219638 L 59.222426 51.050403 C 59.222426 49.269906 58.752693 47.636549 57.894895 46.367481 C 57.037098 45.098413 55.691664 44.148178 54.110867 44.148178 z M 54.110867 46.898159 C 54.599882 46.898159 55.122401 47.17929 55.615212 47.908379 C 56.108023 48.637468 56.472812 49.768716 56.472812 51.050403 L 56.472812 59.256029 L 51.749867 51.04813 C 51.750302 49.767392 52.11306 48.637031 52.605576 47.908379 C 53.098387 47.17929 53.621852 46.898159 54.110867 46.898159 z M 74.623289 46.898159 C 75.112304 46.898159 75.633878 47.17929 76.126689 47.908379 C 76.6195 48.637468 76.984289 49.768716 76.984289 51.050403 L 76.984289 62.32078 L 76.232589 63.626453 L 72.261344 56.7265 L 72.261344 51.050403 C 72.261344 49.768716 72.624243 48.637468 73.117053 47.908379 C 73.609865 47.17929 74.134274 46.898159 74.623289 46.898159 z M 95.134766 46.898159 C 95.623781 46.898159 96.1463 47.17929 96.639111 47.908379 C 97.131922 48.637468 97.493875 49.768716 97.493875 51.050403 L 97.493875 56.646956 L 93.476299 63.625317 L 92.773767 62.404871 L 92.773767 51.050403 C 92.773767 49.768716 93.13572 48.637468 93.62853 47.908379 C 94.121342 47.17929 94.645751 46.898159 95.134766 46.898159 z M 115.64435 46.898159 C 116.13337 46.898159 116.65778 47.17929 117.15059 47.908379 C 117.63348 48.622789 117.98924 49.7244 118.00346 50.974267 L 113.28524 59.173075 L 113.28524 51.050403 C 113.28524 49.768716 113.64813 48.637468 114.14095 47.908379 C 114.63376 47.17929 115.15534 46.898159 115.64435 46.898159 z M 67.611206 54.158336 L 69.511731 57.460586 L 69.511731 80.620655 L 68.80258 79.388845 A 1.3751375 1.3751375 0 0 0 66.419833 79.388845 L 59.222426 91.892168 L 59.222426 67.726425 A 1.3751375 1.3751375 0 0 0 60.179306 67.068475 L 67.611206 54.158336 z M 84.855862 54.158336 L 90.023207 63.13782 L 90.023207 86.296752 L 86.047235 79.388845 A 1.3751375 1.3751375 0 0 0 83.664489 79.388845 L 79.733903 86.217207 L 79.733903 63.056002 L 84.855862 54.158336 z M 102.09957 54.158336 L 109.53147 67.068475 A 1.3751375 1.3751375 0 0 0 110.53563 67.726425 L 110.53563 91.973986 L 103.29095 79.388845 A 1.3751375 1.3751375 0 0 0 100.9082 79.388845 L 100.24443 80.542246 L 100.24443 57.382178 L 102.09957 54.158336 z M 118.0063 56.482184 L 118.0063 79.642252 L 113.28524 87.845605 L 113.28524 64.685537 L 118.0063 56.482184 z M 51.749867 56.562865 L 56.472812 64.768491 L 56.472812 87.928559 L 51.749867 79.720661 L 51.749867 56.562865 z M 97.493875 62.160554 L 97.493875 85.31835 L 93.476299 92.296711 L 92.773767 91.076265 L 92.773767 67.542335 A 1.3751375 1.3751375 0 0 0 94.669563 67.068475 L 97.493875 62.160554 z M 72.261344 62.237826 L 75.041215 67.068475 A 1.3751375 1.3751375 0 0 0 76.984289 67.518472 L 76.984289 90.993311 L 76.232589 92.298983 L 72.261344 85.399031 L 72.261344 62.237826 z M 67.611206 82.832003 L 69.511731 86.134253 L 69.511731 109.29205 L 68.80258 108.06024 A 1.3751375 1.3751375 0 0 0 66.419833 108.06024 L 59.222426 120.56356 L 59.222426 96.398955 A 1.3751375 1.3751375 0 0 0 60.179306 95.739869 L 67.611206 82.832003 z M 84.855862 82.832003 L 90.023207 91.81035 L 90.023207 114.96928 L 86.047235 108.06024 A 1.3751375 1.3751375 0 0 0 83.664489 108.06024 L 79.733903 114.8886 L 79.733903 91.727397 L 84.855862 82.832003 z M 102.09957 82.832003 L 109.53147 95.739869 A 1.3751375 1.3751375 0 0 0 110.53563 96.398955 L 110.53563 120.64538 L 103.29095 108.06024 A 1.3751375 1.3751375 0 0 0 100.9082 108.06024 L 100.24443 109.21364 L 100.24443 86.054708 L 102.09957 82.832003 z M 118.0063 85.154714 L 118.0063 108.31365 L 113.28524 116.517 L 113.28524 93.358067 L 118.0063 85.154714 z M 51.749867 85.234259 L 56.472812 93.439885 L 56.472812 116.59995 L 51.749867 108.39205 L 51.749867 85.234259 z M 97.493875 90.833084 L 97.493875 113.99088 L 93.476299 120.96924 L 92.773767 119.7488 L 92.773767 96.214866 A 1.3751375 1.3751375 0 0 0 94.669563 95.739869 L 97.493875 90.833084 z M 72.261344 90.910357 L 75.041215 95.739869 A 1.3751375 1.3751375 0 0 0 76.984289 96.191002 L 76.984289 119.6647 L 76.232589 120.97038 L 72.261344 114.07042 L 72.261344 90.910357 z M 118.0063 113.82611 L 118.0063 131.59644 A 1.3751375 1.3751375 0 0 0 117.98644 131.77485 L 117.98644 145.10771 A 1.3751375 1.3751375 0 0 0 118.0063 145.28612 L 118.0063 148.28496 C 118.0063 149.56664 117.6434 150.69903 117.15059 151.42812 C 116.65778 152.15721 116.13337 152.43721 115.64435 152.43721 C 115.15534 152.43721 114.63376 152.15721 114.14095 151.42812 C 113.64813 150.69903 113.28524 149.56664 113.28524 148.28496 L 113.28524 122.0306 L 118.0063 113.82611 z M 51.749867 113.90565 L 56.472812 122.11242 L 56.472812 148.28496 C 56.472812 149.56664 56.108023 150.69903 55.615212 151.42812 C 55.122401 152.15721 54.599882 152.43721 54.110867 152.43721 C 53.621852 152.43721 53.098387 152.15721 52.605576 151.42812 C 52.112765 150.69903 51.749867 149.56664 51.749867 148.28496 L 51.749867 113.90565 z M 97.493875 119.50561 L 97.493875 148.28496 C 97.493875 149.56664 97.131922 150.69903 96.639111 151.42812 C 96.1463 152.15721 95.623781 152.43721 95.134766 152.43721 C 94.645751 152.43721 94.121342 152.15721 93.62853 151.42812 C 93.13572 150.69903 92.773767 149.56664 92.773767 148.28496 L 92.773767 124.88626 A 1.3751375 1.3751375 0 0 0 94.669563 124.4124 L 97.493875 119.50561 z M 72.261344 119.58289 L 75.041215 124.4124 A 1.3751375 1.3751375 0 0 0 76.984289 124.8624 L 76.984289 148.28496 C 76.984289 149.56664 76.6195 150.69903 76.126689 151.42812 C 75.633878 152.15721 75.112304 152.43721 74.623289 152.43721 C 74.134274 152.43721 73.609865 152.15721 73.117053 151.42812 C 72.624243 150.69903 72.261344 149.56664 72.261344 148.28496 L 72.261344 119.58289 z M 42.999892 133.14984 L 48.945413 133.14984 L 48.945413 143.73272 L 43.007457 143.73272 C 43.015249 141.06875 43.016053 137.53821 42.999892 133.14984 z M 120.75591 133.14984 L 126.69765 133.14984 L 126.69765 143.73272 L 120.75591 143.73272 L 120.75591 133.14984 z " />
</svg>