<?xml version="1.0" encoding="UTF-8" standalone="no"?>
<!-- Created with Inkscape (http://www.inkscape.org/) -->

<svg fill="#b9b9b9" width="200" height="200" viewBox="0 0 200 200" version="1.1" id="svg5"
   xmlns="http://www.w3.org/2000/svg" xmlns:svg="http://www.w3.org/2000/svg">
   <path id="path"
      d="M 100.29297 2.4609375 C 45.806672 2.4609375 1.6074219 46.660197 1.6074219 101.14648 C 1.6074219 155.63278 45.806672 199.83398 100.29297 199.83398 C 154.77926 199.83398 198.97852 155.63472 198.97852 101.14844 C 198.97852 46.662143 154.77926 2.4609375 100.29297 2.4609375 z M 100.29297 5.2109375 C 153.29306 5.2109375 196.22852 48.148351 196.22852 101.14844 C 196.22852 154.14851 153.29306 197.08398 100.29297 197.08398 C 47.292879 197.08398 4.3574219 154.14851 4.3574219 101.14844 C 4.3574219 48.148351 47.292879 5.2109375 100.29297 5.2109375 z M 58.078125 38.005859 C 56.058078 38.005859 54.323009 39.016086 53.195312 40.404297 C 52.067616 41.792509 51.4375 43.600609 51.4375 45.578125 L 51.4375 45.724609 L 39.957031 62.320312 A 1.375 1.375 0 0 0 40.306641 64.234375 A 1.375 1.375 0 0 0 42.21875 63.884766 L 51.4375 50.558594 L 51.4375 78.496094 L 39.957031 95.091797 A 1.375 1.375 0 0 0 40.306641 97.005859 A 1.375 1.375 0 0 0 42.21875 96.65625 L 51.4375 83.330078 L 51.4375 111.26758 L 39.957031 127.86523 A 1.375 1.375 0 0 0 40.306641 129.77734 A 1.375 1.375 0 0 0 42.21875 129.42969 L 51.4375 116.10156 L 51.4375 136.5918 L 42.285156 136.5918 C 42.276961 135.19049 42.268011 133.80945 42.255859 132.27344 L 39.505859 132.29492 C 39.520077 134.09207 39.530204 135.73378 39.539062 137.3457 A 1.5075242 1.2543748 0 0 0 39.396484 137.8457 L 39.396484 153.08398 A 1.5075242 1.2543748 0 0 0 39.548828 153.59766 C 39.530615 156.7118 39.505859 158.61523 39.505859 158.61523 L 42.255859 158.66016 C 42.255859 158.66016 42.275473 156.94849 42.292969 154.33594 L 51.4375 154.33594 L 51.4375 156.7168 C 51.4375 158.69431 52.067616 160.50241 53.195312 161.89062 C 54.323009 163.27884 56.058078 164.28906 58.078125 164.28906 C 60.098171 164.28906 61.829336 163.27884 62.957031 161.89062 C 64.084728 160.50241 64.714844 158.69431 64.714844 156.7168 L 64.714844 129.95117 A 1.3751375 1.3751375 0 0 0 65.90625 129.42969 L 76.619141 113.93945 L 79.613281 118.26758 L 79.613281 156.7168 C 79.613281 158.69431 80.243398 160.50241 81.371094 161.89062 C 82.498791 163.27884 84.233861 164.28906 86.253906 164.28906 C 88.273953 164.28906 90.005117 163.27884 91.132812 161.89062 C 92.260509 160.50241 92.890625 158.69431 92.890625 156.7168 L 92.890625 124.66602 L 100.30859 113.94141 L 107.78906 124.75586 L 107.78906 156.7168 C 107.78906 158.69431 108.41918 160.50241 109.54688 161.89062 C 110.67457 163.27884 112.40964 164.28906 114.42969 164.28906 C 116.44973 164.28906 118.1809 163.27884 119.30859 161.89062 C 120.43629 160.50241 121.06641 158.69431 121.06641 156.7168 L 121.06641 118.17773 L 123.99609 113.94141 L 134.70898 129.42969 A 1.3751375 1.3751375 0 0 0 135.96484 129.95117 L 135.96484 156.7168 C 135.96484 158.69431 136.59496 160.50241 137.72266 161.89062 C 138.85034 163.27884 140.58346 164.28906 142.60352 164.28906 C 144.62357 164.28906 146.35863 163.27884 147.48633 161.89062 C 148.61403 160.50241 149.24219 158.69431 149.24219 156.7168 L 149.24219 154.33594 L 158.41406 154.33594 C 158.39671 156.91956 158.37695 158.61523 158.37695 158.61523 L 161.12695 158.66016 C 161.12695 158.66016 161.15359 156.6368 161.17188 153.13086 A 1.5075242 1.2543748 0 0 0 161.18164 153.08398 L 161.18164 151.33789 C 161.18946 149.00609 161.19073 146.10533 161.18164 142.64453 L 161.18164 137.8457 A 1.5075242 1.2543748 0 0 0 161.16211 137.65625 C 161.15304 135.95087 161.14204 134.18805 161.12695 132.27344 L 158.37695 132.29492 C 158.38899 133.82381 158.39813 135.19699 158.40625 136.5918 L 149.24219 136.5918 L 149.24219 116.19531 L 158.39648 129.42969 A 1.375 1.375 0 0 0 160.31055 129.77734 A 1.375 1.375 0 0 0 160.6582 127.86523 L 149.24219 111.36133 L 149.24219 83.423828 L 158.39648 96.65625 A 1.375 1.375 0 0 0 160.31055 97.005859 A 1.375 1.375 0 0 0 160.6582 95.091797 L 149.24219 78.589844 L 149.24219 50.652344 L 158.39648 63.884766 A 1.375 1.375 0 0 0 160.31055 64.234375 A 1.375 1.375 0 0 0 160.6582 62.320312 L 149.24219 45.818359 L 149.24219 45.578125 C 149.24219 43.600609 148.61403 41.792509 147.48633 40.404297 C 146.35863 39.016086 144.62357 38.005859 142.60352 38.005859 C 140.58346 38.005859 138.85034 39.016086 137.72266 40.404297 C 136.59496 41.792509 135.96484 43.600609 135.96484 45.578125 L 135.96484 60.503906 L 135.83984 60.685547 L 125.12695 45.199219 A 1.3751375 1.3751375 0 0 0 122.86523 45.199219 L 121.06641 47.798828 L 121.06641 45.578125 C 121.06641 43.600609 120.43629 41.792509 119.30859 40.404297 C 118.1809 39.016086 116.44973 38.005859 114.42969 38.005859 C 112.40964 38.005859 110.67457 39.016086 109.54688 40.404297 C 108.41918 41.792509 107.78906 43.600609 107.78906 45.578125 L 107.78906 54.378906 L 101.43945 45.199219 A 1.3751375 1.3751375 0 0 0 99.177734 45.199219 L 92.890625 54.287109 L 92.890625 45.578125 C 92.890625 43.600609 92.260509 41.792509 91.132812 40.404297 C 90.005117 39.016086 88.273953 38.005859 86.253906 38.005859 C 84.233861 38.005859 82.498791 39.016086 81.371094 40.404297 C 80.243398 41.792509 79.613283 43.600609 79.613281 45.578125 L 79.613281 47.892578 L 77.75 45.199219 A 1.3751375 1.3751375 0 0 0 75.490234 45.199219 L 64.775391 60.685547 L 64.714844 60.597656 L 64.714844 45.578125 C 64.714844 43.600609 64.084728 41.792509 62.957031 40.404297 C 61.829336 39.016086 60.098171 38.005859 58.078125 38.005859 z M 58.078125 40.513672 C 58.901283 40.513672 59.731412 40.912942 60.458984 41.808594 C 61.186557 42.704245 61.701172 44.055615 61.701172 45.578125 L 61.701172 56.242188 L 54.453125 45.763672 L 54.453125 45.578125 C 54.453125 44.055615 54.963834 42.704245 55.691406 41.808594 C 56.418977 40.912942 57.254966 40.513672 58.078125 40.513672 z M 86.253906 40.513672 C 87.077065 40.513672 87.907192 40.912942 88.634766 41.808594 C 89.362336 42.704245 89.876953 44.055615 89.876953 45.578125 L 89.876953 58.644531 L 88.464844 60.685547 L 82.628906 52.25 L 82.628906 45.578125 C 82.628906 44.055615 83.141568 42.704245 83.869141 41.808594 C 84.596713 40.912942 85.430748 40.513672 86.253906 40.513672 z M 114.42969 40.513672 C 115.25285 40.513672 116.08493 40.912942 116.8125 41.808594 C 117.54007 42.704245 118.05469 44.055615 118.05469 45.578125 L 118.05469 52.152344 L 112.15234 60.685547 L 110.80273 58.734375 L 110.80273 45.578125 C 110.80273 44.055615 111.31735 42.704245 112.04492 41.808594 C 112.7725 40.912942 113.60653 40.513672 114.42969 40.513672 z M 142.60352 40.513672 C 143.42668 40.513672 144.26071 40.912942 144.98828 41.808594 C 145.71585 42.704245 146.23047 44.055615 146.23047 45.578125 L 146.23047 45.666016 L 138.97852 56.148438 L 138.97852 45.578125 C 138.97852 44.055615 139.49312 42.704245 140.2207 41.808594 C 140.94827 40.912942 141.78035 40.513672 142.60352 40.513672 z M 76.619141 48.396484 L 79.613281 52.724609 L 79.613281 80.664062 L 77.75 77.970703 A 1.3751375 1.3751375 0 0 0 75.490234 77.970703 L 64.775391 93.457031 L 64.714844 93.369141 L 64.714844 64.40625 A 1.3751375 1.3751375 0 0 0 65.90625 63.884766 L 76.619141 48.396484 z M 100.30859 48.398438 L 107.78906 59.212891 L 107.78906 87.150391 L 101.43945 77.970703 A 1.3751375 1.3751375 0 0 0 99.177734 77.970703 L 92.890625 87.058594 L 92.890625 59.121094 L 100.30859 48.398438 z M 123.99609 48.398438 L 134.70898 63.884766 A 1.3751375 1.3751375 0 0 0 135.96484 64.40625 L 135.96484 93.275391 L 135.83984 93.457031 L 125.12695 77.970703 A 1.3751375 1.3751375 0 0 0 122.86523 77.970703 L 121.06641 80.570312 L 121.06641 52.632812 L 123.99609 48.398438 z M 146.23047 50.5 L 146.23047 78.4375 L 138.97852 88.919922 L 138.97852 60.982422 L 146.23047 50.5 z M 54.453125 50.597656 L 61.701172 61.076172 L 61.701172 89.013672 L 54.453125 78.535156 L 54.453125 50.597656 z M 118.05469 56.986328 L 118.05469 84.923828 L 112.15234 93.457031 L 110.80273 91.505859 L 110.80273 63.568359 L 111.02148 63.884766 A 1.3751375 1.3751375 0 0 0 113.2832 63.884766 L 118.05469 56.986328 z M 82.628906 57.083984 L 87.333984 63.884766 A 1.3751375 1.3751375 0 0 0 89.595703 63.884766 L 89.876953 63.478516 L 89.876953 91.416016 L 88.464844 93.457031 L 82.628906 85.021484 L 82.628906 57.083984 z M 76.619141 81.167969 L 79.613281 85.496094 L 79.613281 113.43555 L 77.75 110.74219 A 1.3751375 1.3751375 0 0 0 75.490234 110.74219 L 64.775391 126.23047 L 64.714844 126.14258 L 64.714844 97.177734 A 1.3751375 1.3751375 0 0 0 65.90625 96.65625 L 76.619141 81.167969 z M 100.30859 81.169922 L 107.78906 91.984375 L 107.78906 119.92188 L 101.43945 110.74219 A 1.3751375 1.3751375 0 0 0 99.177734 110.74219 L 92.890625 119.83203 L 92.890625 91.892578 L 100.30859 81.169922 z M 123.99609 81.169922 L 134.70898 96.65625 A 1.3751375 1.3751375 0 0 0 135.96484 97.177734 L 135.96484 126.04883 L 135.83984 126.23047 L 125.12695 110.74219 A 1.3751375 1.3751375 0 0 0 122.86523 110.74219 L 121.06641 113.34375 L 121.06641 85.404297 L 123.99609 81.169922 z M 146.23047 83.271484 L 146.23047 111.20898 L 138.97852 121.69336 L 138.97852 93.753906 L 146.23047 83.271484 z M 54.453125 83.369141 L 61.701172 93.847656 L 61.701172 121.78516 L 54.453125 111.30664 L 54.453125 83.369141 z M 118.05469 89.757812 L 118.05469 117.69727 L 112.15234 126.23047 L 110.80273 124.2793 L 110.80273 96.339844 L 111.02148 96.65625 A 1.3751375 1.3751375 0 0 0 113.2832 96.65625 L 118.05469 89.757812 z M 82.628906 89.855469 L 87.333984 96.65625 A 1.3751375 1.3751375 0 0 0 89.595703 96.65625 L 89.876953 96.25 L 89.876953 124.18945 L 88.464844 126.23047 L 82.628906 117.79492 L 82.628906 89.855469 z M 146.23047 116.04297 L 146.23047 137.68945 A 1.5075242 1.2543748 0 0 0 146.20117 137.8457 L 146.20117 153.08398 A 1.5075242 1.2543748 0 0 0 146.23047 153.23633 L 146.23047 156.7168 C 146.23047 158.23931 145.71585 159.59069 144.98828 160.48633 C 144.26071 161.38198 143.42668 161.78125 142.60352 161.78125 C 141.78035 161.78125 140.94827 161.38198 140.2207 160.48633 C 139.49312 159.59069 138.97852 158.23931 138.97852 156.7168 L 138.97852 126.52734 L 146.23047 116.04297 z M 54.453125 116.14062 L 61.701172 126.61914 L 61.701172 156.7168 C 61.701172 158.23931 61.186557 159.59069 60.458984 160.48633 C 59.731412 161.38198 58.901283 161.78125 58.078125 161.78125 C 57.254966 161.78125 56.418977 161.38198 55.691406 160.48633 C 54.963834 159.59069 54.453125 158.23931 54.453125 156.7168 L 54.453125 116.14062 z M 118.05469 122.53125 L 118.05469 156.7168 C 118.05469 158.23931 117.54007 159.59069 116.8125 160.48633 C 116.08493 161.38198 115.25285 161.78125 114.42969 161.78125 C 113.60653 161.78125 112.7725 161.38198 112.04492 160.48633 C 111.31735 159.59069 110.80273 158.23931 110.80273 156.7168 L 110.80273 129.11328 L 111.02148 129.42969 A 1.3751375 1.3751375 0 0 0 113.2832 129.42969 L 118.05469 122.53125 z M 82.628906 122.62695 L 87.333984 129.42969 A 1.3751375 1.3751375 0 0 0 89.595703 129.42969 L 89.876953 129.02344 L 89.876953 156.7168 C 89.876953 158.23931 89.362336 159.59069 88.634766 160.48633 C 87.907192 161.38198 87.077065 161.78125 86.253906 161.78125 C 85.430748 161.78125 84.596713 161.38198 83.869141 160.48633 C 83.141568 159.59069 82.628906 158.23931 82.628906 156.7168 L 82.628906 122.62695 z M 42.412109 139.09961 L 51.361328 139.09961 L 51.361328 151.83008 L 42.412109 151.83008 L 42.412109 139.09961 z M 149.24219 139.09961 L 158.16602 139.09961 L 158.16602 151.83008 L 149.24219 151.83008 L 149.24219 139.09961 z " />
</svg>